# xmcd CD database file
#
# Track frame offsets:
#	150
#	10807
#	35160
#	55388
#	71667
#	90166
#	100469
#	111666
#	119013
#	129208
#
# Disc length: 1910 seconds
#
# Revision: 0
# Processed by: cddbd v1.5.2PL0 Copyright (c) Steve Scherf et al.
# Submitted via: CDex 1.51
#
DISCID=8c07740a
DTITLE=Hubert Laws - How To Beat The High Cost Of Living
DYEAR=1980
DGENRE=Jazz
TTITLE0=Down River
TTITLE1=Night Moves
TTITLE2=Piccolo Boogie
TTITLE3=Dream Something
TTITLE4=It's So Easy Loving You
TTITLE5=The Edge
TTITLE6=The Caper
TTITLE7=Ready To Run
TTITLE8=The Scuffle
TTITLE9=Song For A Pretty Girl
EXTD=YEAR: 1980
EXTT0=
EXTT1=
EXTT2=
EXTT3=
EXTT4=
EXTT5=
EXTT6=
EXTT7=
EXTT8=
EXTT9=
PLAYORDER=
